<?xml version="1.0" encoding="utf-8"?>
<!-- Generator: Adobe Illustrator 23.1.0, SVG Export Plug-In . SVG Version: 6.00 Build 0)  -->
<svg version="1.1" id="Слой_1" xmlns="http://www.w3.org/2000/svg" xmlns:xlink="http://www.w3.org/1999/xlink" x="0px" y="0px"
	 viewBox="0 0 759.1 676.2" style="enable-background:new 0 0 759.1 676.2;" xml:space="preserve">
<style type="text/css">
	.st0{fill:#FFDC65;}
	.st1{fill:#FFF182;}
	.st2{fill:#FDC850;}
	.st3{fill:#1F1F1F;}
</style>
<path class="st0" d="M718.1,328.1l-120.7-55.9l-8.7-132.8c-0.6-9.3-12-13.4-18.4-6.5l-90.5,97.5l-129-32.8
	c-9-2.3-16.4,7.3-11.9,15.5l64.8,116.2l-71,112.5c-5,7.9,1.9,17.9,11,16.1l130.6-25.7l85.1,102.3c6,7.2,17.6,3.7,18.7-5.5
	l15.9-132.1l123.6-49.3C726.2,344.2,726.5,332,718.1,328.1L718.1,328.1z"/>
<g>
	<path class="st1" d="M374.9,13.1c7.5,13.4,26.4,69.6,37.1,102.4c1.7,5.1-4.9,8.8-8.4,4.7c-22.1-26.4-59.7-72.2-67.2-85.6
		c-5.9-10.6-2.1-24,8.6-29.9C355.6-1.4,369,2.5,374.9,13.1L374.9,13.1z"/>
	<path class="st1" d="M717.9,132.3c-10.8,10.9-44.1,60-63.3,88.6c-3,4.5,2.4,9.8,6.9,6.8c28.4-19.5,77-53.5,87.8-64.4
		c8.5-8.7,8.5-22.6-0.2-31.2C740.4,123.5,726.4,123.6,717.9,132.3z"/>
	<path class="st1" d="M734,539.2c-9.6-12-54.3-50.9-80.5-73.3c-4.1-3.5-10,1.2-7.5,6c16,30.5,44,82.8,53.6,94.8
		c7.6,9.5,21.4,11.1,31,3.5C740.1,562.5,741.6,548.7,734,539.2L734,539.2z"/>
	<path class="st1" d="M324.4,641.4c7.7-13.3,46.1-58.5,68.6-84.5c3.5-4.1,10.1-0.3,8.3,4.8c-11.3,32.5-31.1,88.4-38.7,101.7
		c-6.1,10.5-19.5,14.2-30.1,8.1C321.9,665.4,318.3,652,324.4,641.4L324.4,641.4z"/>
</g>
<path class="st2" d="M584.9,203.4l-2.8-43.1c-0.5-8.3-10.8-11.9-16.4-5.8l-80.8,87.1l-115.1-29.3c-8.1-2-14.7,6.5-10.6,13.8
	L417,329.8l-63.4,100.5c-4.4,7,1.7,16,9.8,14.4l15.5-3.1C448.2,313.1,542.7,234.3,584.9,203.4L584.9,203.4z"/>
<g>
	<path class="st3" d="M38.3,442.9c-1,3.3-1.7,6.6-2.1,9.7c-0.4,3.2-0.7,6.3-0.7,9.3c0,6.2,1.4,12.2,4.1,18.1
		c2.7,5.9,6.8,11.1,12.1,15.7c5.3,4.6,11.9,8.2,19.7,11c7.8,2.8,16.7,4.2,26.9,4.2c7.1,0,14.2-0.7,21.4-2c7.2-1.3,14.1-3.4,20.7-6
		c6.6-2.7,12.8-6,18.5-9.9c5.7-3.9,10.6-8.6,14.8-13.8c4.2-5.3,7.5-11.2,9.9-17.7c2.4-6.5,3.6-13.7,3.6-21.5c0-7.4-1-14.2-3-20.3
		c-2-6.1-4.8-11.6-8.4-16.6c-3.6-5-7.8-9.5-12.7-13.7c-4.9-4.2-10.2-8-15.9-11.6c-5.7-3.5-11.7-6.9-18-10.1
		c-6.3-3.2-12.6-6.4-19-9.5c-6.7-3.3-13.4-6.7-19.9-10.2c-6.6-3.5-12.9-7.3-18.9-11.3c-6-4-11.6-8.4-16.8-13.2
		c-5.2-4.8-9.6-10.1-13.4-16.1s-6.7-12.5-8.9-19.7c-2.1-7.2-3.2-15.3-3.2-24.2c0-9.3,1.3-18,4-26.1c2.6-8.1,6.3-15.6,11-22.4
		c4.7-6.8,10.3-12.9,16.8-18.2c6.5-5.3,13.6-9.9,21.3-13.6c7.7-3.7,15.9-6.5,24.4-8.5c8.6-1.9,17.4-2.9,26.5-2.9
		c8.2,0,16.5,0.9,24.7,2.6c8.2,1.7,15.7,4.5,22.2,8.1c6.6,3.7,11.9,8.4,16.1,14c4.1,5.7,6.2,12.4,6.2,20.2c0,4-0.8,7.8-2.3,11.2
		c-1.5,3.4-3.6,6.4-6.2,9c-2.6,2.6-5.7,4.5-9.2,6c-3.5,1.4-7.2,2.1-11,2.1c-1.3,0-2.6-0.1-3.9-0.2c-1.3-0.1-2.6-0.4-3.9-0.9
		l-1.2-1.2c1.6-5.6,2.4-10.7,2.4-15c0-7.5-1.3-13.7-3.9-18.6c-2.6-4.9-6-8.8-10.1-11.6c-4.2-2.9-8.9-4.9-14.1-6
		c-5.2-1.2-10.5-1.7-15.8-1.7c-9.1,0-17.6,1.4-25.5,4.2c-7.8,2.8-14.6,6.8-20.4,11.9c-5.7,5.1-10.2,11.2-13.5,18.3
		c-3.3,7.1-4.9,14.9-4.9,23.4c0,7.3,1,13.8,3,19.7c2,5.9,4.7,11.3,8.3,16.2c3.5,4.9,7.7,9.4,12.6,13.4c4.8,4.1,10.1,7.9,15.8,11.4
		c5.7,3.5,11.7,6.9,18,10.1c6.3,3.2,12.7,6.4,19.1,9.5c6.4,3.1,12.8,6.4,19.3,9.7c6.5,3.4,12.9,7,19.1,11c6.2,4,12,8.4,17.4,13.1
		c5.4,4.7,10.2,10,14.2,15.9c4.1,5.8,7.3,12.3,9.6,19.5c2.3,7.2,3.5,15.1,3.5,23.9c0,12-1.8,23-5.3,33c-3.5,10-8.4,19-14.4,26.9
		c-6.1,8-13.2,15-21.4,21c-8.2,6-16.9,11-26.2,15c-9.3,4-18.9,7-28.9,8.9c-9.9,2-19.7,3-29.4,3c-6.1,0-12.6-0.5-19.5-1.5
		c-6.9-1-13.9-2.5-20.8-4.5c-6.9-2-13.5-4.6-19.9-7.7c-6.4-3.1-12-6.9-16.8-11.2s-8.7-9.3-11.6-15C1.5,483.3,0,477,0,470
		c0-4.5,0.8-8.6,2.4-12.2c1.6-3.7,3.8-6.8,6.4-9.5c2.7-2.6,5.8-4.7,9.2-6.1c3.4-1.4,7-2.1,10.7-2.1c1.3,0,2.7,0.1,4.1,0.3
		c1.4,0.2,2.8,0.6,4.2,1.1L38.3,442.9z"/>
	<path class="st3" d="M306.7,127.2c-1.8,15.2-3.6,30.8-5.3,46.8s-3.4,32.2-5,48.5c-1.6,16.3-3,32.8-4.4,49.2
		c-1.3,16.5-2.5,32.7-3.5,48.7c-1,16-1.7,31.7-2.3,47.1c-0.5,15.4-0.8,30.2-0.8,44.3c0,8.9,0.1,16.5,0.3,22.8
		c0.2,6.4,0.6,11.7,1.1,16.1c0.5,4.4,1.2,7.9,2,10.6c0.9,2.7,1.9,4.7,3.2,6.2c1.3,1.4,2.7,2.4,4.4,2.9c1.7,0.5,3.7,0.7,6,0.7
		c4.3,0,8.9-0.6,13.9-1.9c5-1.3,10-3.1,15.1-5.4l2.6,7c-3.2,2.6-7.3,5.2-12.2,7.9c-4.9,2.7-10,5.2-15.4,7.4
		c-5.4,2.2-10.6,4-15.8,5.4c-5.2,1.4-9.6,2.1-13.4,2.1c-4.8,0-8.7-1.2-11.5-3.7c-2.8-2.5-5-6.5-6.4-12c-1.5-5.6-2.4-12.8-2.8-21.7
		s-0.6-19.8-0.6-32.6c0-4.7,0.1-11.3,0.4-20c0.3-8.6,0.6-18.7,1.1-30.2c0.5-11.5,1.1-24,1.7-37.6c0.6-13.6,1.3-27.7,2-42.3
		c0.7-14.6,1.5-29.2,2.3-44.1c0.8-14.8,1.6-29.2,2.4-43c0.8-13.8,1.6-26.9,2.3-39.2c0.7-12.3,1.4-23.1,2-32.5c0.1-2.1,0.7-4,1.9-5.6
		c1.2-1.6,2.7-2.8,4.5-3.8c1.8-0.9,3.9-1.6,6.2-2.1c2.3-0.4,4.6-0.7,6.9-0.7C295.2,122.9,300.8,124.3,306.7,127.2L306.7,127.2z"/>
</g>
</svg>
