<?xml version="1.0" encoding="utf-8"?>
<!-- Generator: Adobe Illustrator 23.1.0, SVG Export Plug-In . SVG Version: 6.00 Build 0)  -->
<svg version="1.1" id="Слой_1" xmlns="http://www.w3.org/2000/svg" xmlns:xlink="http://www.w3.org/1999/xlink" x="0px" y="0px"
	 viewBox="0 0 712.3215942 454.840271" style="enable-background:new 0 0 712.3215942 454.840271;" xml:space="preserve">
<style type="text/css">
	.st0{fill:#FFDC65;}
	.st1{fill:#FFF182;}
	.st2{fill:#FDC850;}
	.st3{fill:#1F1F1F;}
</style>
<path class="st0" d="M697.6600342,226.0971222l-107.8049927-49.9380035l-7.7559814-118.5569992
	c-0.5430298-8.3010025-10.7509766-11.9280014-16.4089966-5.8290024l-80.8079834,87.0960083l-115.1499939-29.2590103
	c-8.0629883-2.048996-14.6659851,6.5390015-10.6149902,13.8049927l57.8630066,103.7659988l-63.4100037,100.4749908
	c-4.4400024,7.0350037,1.6879883,15.9689941,9.848999,14.3609924l116.5690002-22.9660034l75.960022,91.355011
	c5.3189697,6.3970032,15.7080078,3.3299866,16.7020264-4.9299927l14.1799927-117.9609985l110.3569946-44.0119781
	c7.7269897-3.0799866,8.0209961-13.9100037,0.4730225-17.4060059H697.6600342z"/>
<g>
	<path class="st1" d="M461.190033,10.6671143c2.8789978,9.9120026,6.8779907,49.5100021,9.0309753,72.5239944
		c0.3389893,3.6179962-4.5549927,5.0390015-6.2070007,1.8029938
		c-10.5109863-20.5850067-28.3479919-56.1640015-31.2269897-66.0770035
		c-2.2780151-7.8430023,2.2330017-16.0479965,10.0769958-18.3259964c7.8429871-2.2789993,16.0469971,2.2330017,18.3259888,10.076004
		L461.190033,10.6671143z"/>
	<path class="st1" d="M689.1140137,91.6291122c-8.4869995,5.875-36.5689697,34.0769958-52.757019,50.5760117
		c-2.5449829,2.5939941,0.3549805,6.7830048,3.6790161,5.3139954c21.1420288-9.3419952,57.4249878-25.6970139,65.9130249-31.5710068
		c6.7150269-4.647995,8.3909912-13.8610077,3.7420044-20.576004
		C705.0420532,88.656105,695.8290405,86.981102,689.1140137,91.6291122z"/>
	<path class="st1" d="M696.6940308,355.0061035c-8.1760254-6.2999878-43.5780029-24.4859924-64.2139893-34.8959961
		c-3.2440186-1.6369934-6.3540039,2.3999939-3.9459839,5.1199951
		c15.3239746,17.3040161,41.9299927,46.9030151,50.1060181,53.2030029
		c6.4689941,4.9849854,15.7550049,3.7829895,20.7410278-2.6870117c4.9849854-6.4700012,3.7819824-15.7550049-2.6870117-20.7399902
		H696.6940308z"/>
	<path class="st1" d="M423.5540466,435.098114c3.4549866-9.7260132,23.3460083-44.1990051,35.0450134-64.1329956
		c1.8389893-3.1340027,6.6409912-1.428009,6.0910034,2.1629944c-3.4970093,22.8479919-9.8099976,62.1430054-13.2650146,71.8699951
		c-2.7340088,7.6959839-11.1889954,11.7189941-18.8850098,8.9849854
		c-7.696991-2.7329712-11.7200012-11.1890259-8.9859924-18.8850098V435.098114z"/>
</g>
<path class="st2" d="M584.9190063,100.7151108l-2.8209839-43.1119995
	c-0.5430298-8.3010025-10.7509766-11.9280014-16.4089966-5.8290024l-80.8079834,87.0960083L369.7320557,109.612114
	c-8.0629883-2.048996-14.6660156,6.5390015-10.6149902,13.8050079l57.8630066,103.7659988l-63.4100037,100.4729767
	c-4.4400024,7.0350037,1.6879883,15.9689941,9.848999,14.3609924l15.5150146-3.0570068
	c69.3009949-128.5039825,163.8040161-207.3369904,205.9849854-238.2449951L584.9190063,100.7151108z"/>
<g>
	<path class="st3" d="M38.2860374,340.2290955c-0.9860001,3.3150024-1.7020035,6.5610046-2.1490021,9.7399902
		c-0.4489975,3.1809998-0.6719971,6.2929993-0.6719971,9.3370056c0,6.1799927,1.3639984,12.223999,4.0979996,18.1359863
		c2.7300034,5.9100037,6.7610016,11.1499939,12.0910034,15.7179871c5.3280029,4.5669861,11.8889999,8.2390137,19.6809959,11.0159912
		c7.7910004,2.7739868,16.7460022,4.1650085,26.8679962,4.1650085c7.0740051,0,14.1940002-0.6719971,21.3600006-2.0150146
		c7.1640015-1.3439941,14.0590057-3.3590088,20.6889954-6.04599c6.6269989-2.6870117,12.7830048-6.0020142,18.4720001-9.9410095
		c5.6860046-3.9419861,10.6340027-8.553009,14.8450012-13.8370056c4.2089996-5.2839966,7.522995-11.1960144,9.9409943-17.7340088
		c2.4179993-6.5369873,3.628006-13.7030029,3.628006-21.4949951c0-7.4330139-1.0079956-14.1940002-3.022995-20.2860107
		c-2.0149994-6.0889893-4.8159943-11.6199951-8.3970032-16.5910034c-3.5829926-4.9700012-7.8139954-9.5379944-12.6949921-13.7019958
		c-4.8829956-4.1650085-10.1660004-8.0140076-15.852005-11.5539856
		c-5.6889954-3.5369873-11.6880035-6.9190063-18.0019989-10.1419983
		c-6.3139954-3.2250061-12.6499939-6.4020081-19.0090027-9.5389862
		c-6.7169952-3.3120117-13.3659973-6.7170105-19.9499969-10.2099915
		c-6.5829926-3.4930115-12.8959961-7.2539978-18.9409943-11.2839966
		c-6.0460052-4.0299988-11.644001-8.4410095-16.7930031-13.2330017c-5.1520004-4.7900085-9.6060028-10.1419983-13.3669968-16.053009
		s-6.7170029-12.4710083-8.8669968-19.6809998c-2.1490021-7.2089996-3.223999-15.2919922-3.223999-24.2489929
		c0-9.3130035,1.3209991-18.0220032,3.9629974-26.1289978c2.6409988-8.1050034,6.3150024-15.5610123,11.0159988-22.3680038
		c4.7020035-6.8059998,10.298996-12.8739929,16.7929993-18.2030029c6.4929924-5.3280029,13.5899925-9.8509979,21.2929955-13.5690002
		c7.701004-3.7149963,15.852005-6.5359955,24.4499969-8.4629974c8.5980072-1.9250031,17.4179993-2.8880005,26.4649963-2.8880005
		c8.2380066,0,16.4779968,0.8730011,24.7180023,2.6190033c8.2389984,1.7460022,15.651001,4.4559937,22.2339935,8.128006
		c6.5829926,3.6730042,11.9329987,8.352005,16.0529938,14.0379944c4.1190033,5.6889954,6.1799927,12.427002,6.1799927,20.2189941
		c0,4.0299988-0.7619934,7.7709961-2.2830048,11.2180023c-1.5240021,3.4490128-3.6060028,6.4480057-6.2480011,9.0010147
		c-2.6419983,2.552002-5.7089996,4.5460052-9.2019958,5.9779968c-3.4929962,1.4329987-7.1660004,2.1490021-11.0160065,2.1490021
		c-1.2550049,0-2.5529938-0.0670013-3.8959961-0.201004c-1.3430023-0.1349945-2.6430054-0.423996-3.8959961-0.8739929
		l-1.2089996-1.2089996c1.6119995-5.6430054,2.4179993-10.6569977,2.4179993-15.0470047
		c0-7.522995-1.298996-13.723999-3.8959961-18.6060028c-2.598999-4.8800049-5.9779968-8.753006-10.1419983-11.6210022
		c-4.1649933-2.8650055-8.8670044-4.8800049-14.1060028-6.0449982c-5.2389984-1.1629944-10.5019989-1.7460022-15.7850037-1.7460022
		c-9.1349945,0-17.621994,1.4109955-25.4570007,4.2319946c-7.8390045,2.8209991-14.621994,6.7850037-20.3540039,11.8899994
		c-5.7319946,5.1040039-10.2319946,11.1970062-13.5009956,18.2700043
		c-3.2699966,7.0750046-4.9029999,14.8680038-4.9029999,23.3750076c0,7.2539978,0.9850006,13.8370056,2.9560013,19.7489929
		c1.9690018,5.9109955,4.7230034,11.3079987,8.2620049,16.1880035c3.5370026,4.8820038,7.723999,9.3600006,12.5609894,13.4329987
		c4.8359985,4.0769958,10.0970001,7.8829956,15.7850037,11.4200134c5.6860046,3.5379944,11.6880035,6.9190063,18.0019989,10.1419983
		c6.3139954,3.223999,12.6950073,6.4039917,19.1439972,9.5390015c6.3580017,3.1359863,12.8059998,6.381012,19.3450012,9.7399902
		c6.5359955,3.3590088,12.8959961,7.0320129,19.076004,11.0159912c6.1799927,3.9859924,11.977005,8.3519897,17.397995,13.0979767
		c5.4170074,4.7479858,10.1629944,10.0310059,14.2400055,15.8519897c4.0740051,5.822998,7.2749939,12.3150024,9.6059875,19.4790039
		c2.3269958,7.1669922,3.4930115,15.1369934,3.4930115,23.9129944c0,12.0020142-1.769989,22.9960022-5.3070068,32.980011
		c-3.5379944,9.9880066-8.352005,18.9660034-14.4409943,26.9349976
		c-6.0919952,7.9710083-13.2120056,14.9570007-21.3600006,20.9580078
		c-8.151001,5.9989929-16.8840027,10.9920044-26.1970062,14.9779968
		c-9.3159943,3.9849854-18.9420013,6.9630127-28.8840027,8.9339905c-9.9409943,1.9700012-19.7480011,2.9570007-29.4210052,2.9570007
		c-6.0910034,0-12.6069946-0.493988-19.54599-1.4790039c-6.9420013-0.9859924-13.8610039-2.4840088-20.7560081-4.5
		c-6.8980026-2.0150146-13.5250015-4.5910034-19.8829956-7.723999c-6.3600006-3.1359863-11.9570007-6.8739929-16.7929993-11.2189941
		s-8.7089996-9.3359985-11.6210022-14.9779968C1.4570007,380.6660461,0,374.3510437,0,367.3650513
		c0-4.4769897,0.8059998-8.5509949,2.4179993-12.2250061c1.6119995-3.67099,3.762001-6.8280029,6.4490013-9.4710083
		c2.6860008-2.6409912,5.7529984-4.6789856,9.2019997-6.1130066c3.4470024-1.4320068,7.007-2.1489868,10.6799965-2.1489868
		c1.3430023,0,2.7080002,0.1130066,4.0979996,0.3359985c1.3880005,0.2250061,2.7979965,0.6040039,4.2320023,1.1419983
		L38.2860374,340.2290955z"/>
	<path class="st3" d="M306.7060242,24.5261154c-1.7919922,15.2269974-3.5599976,30.8320007-5.3059998,46.8180084
		s-3.4039917,32.1539917-4.9700012,48.4980011c-1.5679932,16.3450089-3.0230103,32.7580032-4.3659973,49.2360153
		c-1.3439941,16.4809875-2.5090027,32.7120056-3.4930115,48.6990051
		c-0.9869995,15.9859924-1.7460022,31.6830139-2.2839966,47.0859833
		c-0.5369873,15.4049988-0.8059998,30.1830139-0.8059998,44.3330078c0,8.8670044,0.1109924,16.480011,0.3359985,22.8380127
		c0.2219849,6.3599854,0.5809937,11.7340088,1.0750122,16.1210022c0.4909973,4.3890076,1.1629944,7.9259949,2.0150146,10.6130066
		c0.8500061,2.6870117,1.9020081,4.7479858,3.1570129,6.1799927c1.2529907,1.4330139,2.7309875,2.3980103,4.4330139,2.8880005
		c1.7000122,0.493988,3.7149963,0.7390137,6.0450134,0.7390137c4.2990112,0,8.9339905-0.6489868,13.9049988-1.947998
		c4.9700012-1.29599,10.0079956-3.1099854,15.1140137-5.4410095l2.552002,6.9859924
		c-3.223999,2.598999-7.2770081,5.2399902-12.1579895,7.927002c-4.8829956,2.6870117-10.0079956,5.1520081-15.3819885,7.3890076
		c-5.3739929,2.2380066-10.6359863,4.0499878-15.7850037,5.4410095c-5.151001,1.3859863-9.6059875,2.0820007-13.3659973,2.0820007
		c-4.8370056,0-8.6660156-1.2319946-11.4869995-3.6950073c-2.8210144-2.4620056-4.9700012-6.4689941-6.447998-12.0230103
		c-1.4779968-5.552002-2.4190063-12.7850037-2.821991-21.6959839s-0.6040039-19.7690125-0.6040039-32.5780029
		c0-4.6560059,0.1340027-11.3049927,0.4030151-19.9500122c0.2690125-8.6419983,0.6480103-18.6940002,1.1419983-30.1589966
		c0.4909973-11.4630127,1.052002-24.0009918,1.6789856-37.6159821c0.625-13.6130066,1.2969971-27.6950073,2.0150146-42.2510071
		c0.7160034-14.5529938,1.4779968-29.2400055,2.2829895-44.0639954c0.8070068-14.8209991,1.6119995-29.1520157,2.4179993-42.989006
		c0.8070068-13.8370056,1.5660095-26.8899994,2.2839966-39.1609955c0.7160034-12.2689972,1.3880005-23.1070023,2.0150146-32.5099945
		c0.0880127-2.1490021,0.7160034-4.0080032,1.8800049-5.5749969c1.1629944-1.5660019,2.6640015-2.8219986,4.5-3.762001
		c1.8349915-0.9410019,3.8959961-1.6340027,6.1799927-2.0820007c2.2839966-0.4469986,4.5889893-0.6719971,6.9190063-0.6719971
		c5.3739929,0,11.0159912,1.4329987,16.927002,4.2979965L306.7060242,24.5261154z"/>
</g>
</svg>
